<svg width="1200" height="630" viewBox="0 0 1200 630" fill="none" xmlns="http://www.w3.org/2000/svg">
  <rect width="1200" height="630" fill="#081122"/>
  <rect x="38" y="38" width="1124" height="554" rx="32" fill="url(#panel)"/>
  <rect x="86" y="96" width="492" height="340" rx="28" fill="#0F172A" stroke="#334155" stroke-width="2"/>
  <rect x="118" y="132" width="184" height="18" rx="9" fill="#22C55E" fill-opacity="0.9"/>
  <rect x="118" y="172" width="402" height="20" rx="10" fill="#E2E8F0" fill-opacity="0.92"/>
  <rect x="118" y="208" width="348" height="20" rx="10" fill="#94A3B8" fill-opacity="0.8"/>
  <rect x="118" y="258" width="116" height="116" rx="24" fill="#111827"/>
  <rect x="254" y="258" width="116" height="116" rx="24" fill="#0B1220"/>
  <rect x="390" y="258" width="156" height="116" rx="24" fill="#111827"/>
  <path d="M174 319H224" stroke="#38BDF8" stroke-width="18" stroke-linecap="round"/>
  <path d="M312 289L312 349" stroke="#22C55E" stroke-width="18" stroke-linecap="round"/>
  <path d="M446 290H486C506.987 290 524 307.013 524 328C524 348.987 506.987 366 486 366H446V290Z" fill="#F59E0B"/>
  <rect x="608" y="118" width="502" height="394" rx="32" fill="#020617" stroke="#1E293B" stroke-width="2"/>
  <rect x="652" y="152" width="92" height="34" rx="17" fill="#22C55E" fill-opacity="0.14" stroke="#22C55E" stroke-opacity="0.7"/>
  <text x="698" y="169" fill="#DCFCE7" font-family="Arial, Helvetica, sans-serif" font-size="16" font-weight="700" text-anchor="middle" dominant-baseline="middle">DOCS</text>
  <text x="652" y="232" fill="#F8FAFC" font-family="Arial, Helvetica, sans-serif" font-size="46" font-weight="700">markstream-vue</text>
  <text x="652" y="288" fill="#93C5FD" font-family="Arial, Helvetica, sans-serif" font-size="28" font-weight="700">Guides and API</text>
  <text x="652" y="342" fill="#CBD5E1" font-family="Arial, Helvetica, sans-serif" font-size="20">Streaming Markdown for Vue</text>
  <text x="652" y="378" fill="#CBD5E1" font-family="Arial, Helvetica, sans-serif" font-size="20">VitePress, overrides, custom tags</text>
  <rect x="652" y="416" width="100" height="36" rx="18" fill="#0F1D33" stroke="#334155"/>
  <text x="702" y="434" fill="#E2E8F0" font-family="Arial, Helvetica, sans-serif" font-size="16" font-weight="700" text-anchor="middle" dominant-baseline="middle">Guides</text>
  <rect x="764" y="416" width="72" height="36" rx="18" fill="#0F1D33" stroke="#334155"/>
  <text x="800" y="434" fill="#E2E8F0" font-family="Arial, Helvetica, sans-serif" font-size="16" font-weight="700" text-anchor="middle" dominant-baseline="middle">API</text>
  <rect x="848" y="416" width="118" height="36" rx="18" fill="#0F1D33" stroke="#334155"/>
  <text x="907" y="434" fill="#E2E8F0" font-family="Arial, Helvetica, sans-serif" font-size="16" font-weight="700" text-anchor="middle" dominant-baseline="middle">Migration</text>
  <rect x="652" y="462" width="164" height="42" rx="21" fill="#22C55E" fill-opacity="0.18" stroke="#22C55E"/>
  <text x="734" y="483" fill="#DCFCE7" font-family="Arial, Helvetica, sans-serif" font-size="22" font-weight="700" text-anchor="middle" dominant-baseline="middle">Read docs</text>
  <defs>
    <linearGradient id="panel" x1="78" y1="48" x2="1082" y2="582" gradientUnits="userSpaceOnUse">
      <stop stop-color="#111827"/>
      <stop offset="1" stop-color="#0F766E"/>
    </linearGradient>
  </defs>
</svg>
