<svg width="1200" height="630" viewBox="0 0 1200 630" fill="none" xmlns="http://www.w3.org/2000/svg">
  <rect width="1200" height="630" fill="#0b1117"/>
  <rect x="70" y="70" width="1060" height="490" rx="28" fill="#101923" stroke="#64748b" stroke-width="2"/>
  <path d="M168 412c82-150 150-210 244-182 74 22 96 108 172 116 88 9 118-120 224-116 72 3 124 64 178 166" stroke="#43d67b" stroke-width="22" stroke-linecap="round"/>
  <path d="M166 462h868" stroke="#334155" stroke-width="4"/>
  <rect x="154" y="150" width="210" height="56" rx="14" fill="#1f2937"/>
  <text x="259" y="187" fill="#e2e8f0" font-family="Inter, ui-sans-serif, -apple-system, BlinkMacSystemFont, 'Segoe UI', sans-serif" font-size="22" font-weight="700" text-anchor="middle">virtual scroll</text>
  <rect x="390" y="150" width="224" height="56" rx="14" fill="#1f2937"/>
  <text x="502" y="187" fill="#e2e8f0" font-family="Inter, ui-sans-serif, -apple-system, BlinkMacSystemFont, 'Segoe UI', sans-serif" font-size="22" font-weight="700" text-anchor="middle">viewport priority</text>
  <rect x="640" y="150" width="208" height="56" rx="14" fill="#1f2937"/>
  <text x="744" y="187" fill="#e2e8f0" font-family="Inter, ui-sans-serif, -apple-system, BlinkMacSystemFont, 'Segoe UI', sans-serif" font-size="22" font-weight="700" text-anchor="middle">stable heights</text>
  <text x="154" y="540" fill="#f8fafc" font-family="Inter, ui-sans-serif, -apple-system, BlinkMacSystemFont, 'Segoe UI', sans-serif" font-size="68" font-weight="780">Streaming Markdown performance</text>
</svg>
