<?xml version="1.0" encoding="UTF-8"?>
<svg xmlns="http://www.w3.org/2000/svg" viewBox="0 0 128 128" role="img" aria-label="Vue Markdown Renderer">
  <title>Vue Markdown Renderer</title>
  <defs>
    <linearGradient id="g-vue" x1="0" x2="1" y1="0" y2="1">
      <stop offset="0" stop-color="#42b883"/>
      <stop offset="1" stop-color="#35495e"/>
    </linearGradient>
    <linearGradient id="g-md" x1="0" x2="1" y1="0" y2="1">
      <stop offset="0" stop-color="#111827"/>
      <stop offset="1" stop-color="#374151"/>
    </linearGradient>
  </defs>
  <rect x="8" y="10" width="112" height="108" rx="14" fill="url(#g-md)"/>
  <path d="M64 18L38 18L18 18L64 100L110 18L90 18L64 64L38 18Z" fill="url(#g-vue)"/>
  <path d="M30 74h10l8 10 8-10h10v26h-9V89l-9 11-9-11v11h-9V74zm58 0h10l8 10 8-10h10v26h-9V89l-9 11-9-11v11h-9V74z" fill="#f9fafb"/>
</svg>

