<svg width="1200" height="630" viewBox="0 0 1200 630" fill="none" xmlns="http://www.w3.org/2000/svg">
  <rect width="1200" height="630" fill="#050B18"/>
  <rect x="44" y="44" width="1112" height="542" rx="34" fill="url(#bg)"/>
  <rect x="92" y="108" width="430" height="414" rx="30" fill="#020617" stroke="#1E293B" stroke-width="2"/>
  <rect x="128" y="148" width="132" height="36" rx="18" fill="#22C55E" fill-opacity="0.2" stroke="#22C55E"/>
  <text x="194" y="166" fill="#DCFCE7" font-family="Arial, Helvetica, sans-serif" font-size="20" font-weight="700" text-anchor="middle" dominant-baseline="middle">Live demo</text>
  <rect x="128" y="214" width="320" height="18" rx="9" fill="#E2E8F0" fill-opacity="0.92"/>
  <rect x="128" y="246" width="270" height="18" rx="9" fill="#94A3B8" fill-opacity="0.8"/>
  <rect x="128" y="302" width="154" height="164" rx="26" fill="#111827"/>
  <rect x="304" y="302" width="178" height="164" rx="26" fill="#0F172A"/>
  <path d="M168 344H242" stroke="#38BDF8" stroke-width="20" stroke-linecap="round"/>
  <path d="M352 332C352 325.373 357.373 320 364 320H404C427.196 320 446 338.804 446 362C446 385.196 427.196 404 404 404H364C357.373 404 352 398.627 352 392V332Z" fill="#F59E0B"/>
  <path d="M352 434L430 434" stroke="#A78BFA" stroke-width="18" stroke-linecap="round"/>
  <rect x="550" y="118" width="558" height="394" rx="34" fill="#0B1120" stroke="#334155" stroke-width="2"/>
  <rect x="598" y="152" width="158" height="34" rx="17" fill="#38BDF8" fill-opacity="0.14" stroke="#38BDF8" stroke-opacity="0.7"/>
  <text x="677" y="169" fill="#BAE6FD" font-family="Arial, Helvetica, sans-serif" font-size="15" font-weight="700" text-anchor="middle" dominant-baseline="middle">PLAYGROUND</text>
  <text x="598" y="232" fill="#F8FAFC" font-family="Arial, Helvetica, sans-serif" font-size="48" font-weight="700">markstream-vue</text>
  <text x="598" y="288" fill="#C4B5FD" font-family="Arial, Helvetica, sans-serif" font-size="28" font-weight="700">Interactive demos</text>
  <text x="598" y="342" fill="#CBD5E1" font-family="Arial, Helvetica, sans-serif" font-size="20">Streaming Markdown for AI chat</text>
  <text x="598" y="378" fill="#CBD5E1" font-family="Arial, Helvetica, sans-serif" font-size="20">Mermaid, KaTeX, CDN peers</text>
  <rect x="598" y="416" width="110" height="36" rx="18" fill="#0F1D33" stroke="#334155"/>
  <text x="653" y="434" fill="#E2E8F0" font-family="Arial, Helvetica, sans-serif" font-size="16" font-weight="700" text-anchor="middle" dominant-baseline="middle">AI chat</text>
  <rect x="720" y="416" width="120" height="36" rx="18" fill="#0F1D33" stroke="#334155"/>
  <text x="780" y="434" fill="#E2E8F0" font-family="Arial, Helvetica, sans-serif" font-size="16" font-weight="700" text-anchor="middle" dominant-baseline="middle">Mermaid</text>
  <rect x="852" y="416" width="100" height="36" rx="18" fill="#0F1D33" stroke="#334155"/>
  <text x="902" y="434" fill="#E2E8F0" font-family="Arial, Helvetica, sans-serif" font-size="16" font-weight="700" text-anchor="middle" dominant-baseline="middle">KaTeX</text>
  <defs>
    <linearGradient id="bg" x1="66" y1="62" x2="1124" y2="566" gradientUnits="userSpaceOnUse">
      <stop stop-color="#111827"/>
      <stop offset="1" stop-color="#312E81"/>
    </linearGradient>
  </defs>
</svg>
